<svg xmlns="http://www.w3.org/2000/svg" viewBox="0 0 14 16.21"><defs><style>.cls-1{fill:#fff;}</style></defs><g id="Layer_2" data-name="Layer 2"><g id="Layer_1-2" data-name="Layer 1"><path id="Copy_to_clipboard" data-name="Copy to clipboard" class="cls-1" d="M4.42,16.21A1.47,1.47,0,0,1,3,14.74V4.42A1.47,1.47,0,0,1,4.42,3h8.11A1.47,1.47,0,0,1,14,4.42V14.74a1.47,1.47,0,0,1-1.47,1.47ZM.6,11.79a.6.6,0,0,1-.6-.6V1.47A1.47,1.47,0,0,1,1.47,0H9.72a.6.6,0,0,1,.6.6v.87H1.89a.42.42,0,0,0-.42.42v9.9Z"/></g></g></svg>