<svg id="facebook" xmlns="http://www.w3.org/2000/svg" width="29.702" height="29.702" viewBox="0 0 29.702 29.702">
  <path id="Path_51" data-name="Path 51" d="M25.989,0H3.713A3.717,3.717,0,0,0,0,3.713V25.989A3.717,3.717,0,0,0,3.713,29.7H25.989A3.717,3.717,0,0,0,29.7,25.989V3.713A3.717,3.717,0,0,0,25.989,0Z" fill="#1976d2"/>
  <path id="Path_52" data-name="Path 52" d="M205.923,105.282h-4.641v-3.713c0-1.025.832-.928,1.856-.928h1.856V96h-3.713a5.569,5.569,0,0,0-5.569,5.569v3.713H192v4.641h3.713v10.21h5.569v-10.21h2.785Z" transform="translate(-180.862 -90.431)" fill="#fafafa"/>
</svg>
