<svg width="24" height="24" xmlns="http://www.w3.org/2000/svg">

 <g>
  <title>background</title>
  <rect fill="none" id="canvas_background" height="402" width="582" y="-1" x="-1"/>
 </g>
 <g>
  <title>Layer 1</title>
  <path fill="#e1e2e7" id="svg_2" d="m23,6l-8,0l0,-5c0,-0.6 -0.4,-1 -1,-1l-13,0c-0.6,0 -1,0.4 -1,1l0,23l24,0l0,-17c0,-0.6 -0.4,-1 -1,-1zm-1,2l0,14l-7,0l0,-14l7,0zm-9,-6l0,5l0,15l-3,0l0,-5l-5,0l0,5l-3,0l0,-20l11,0zm-7,20l0,-4l3,0l0,4l-3,0z"/>
  <path fill="#e1e2e7" id="svg_3" d="m7,4l-3,0l0,3l3,0l0,-3zm-1,2l-1,0l0,-1l1,0l0,1z"/>
  <path fill="#e1e2e7" id="svg_4" d="m7,8l-3,0l0,3l3,0l0,-3zm-1,2l-1,0l0,-1l1,0l0,1z"/>
  <path fill="#e1e2e7" id="svg_5" d="m7,12l-3,0l0,3l3,0l0,-3zm-1,2l-1,0l0,-1l1,0l0,1z"/>
  <path fill="#e1e2e7" id="svg_6" d="m11,4l-3,0l0,3l3,0l0,-3zm-1,2l-1,0l0,-1l1,0l0,1z"/>
  <path fill="#e1e2e7" id="svg_7" d="m11,8l-3,0l0,3l3,0l0,-3zm-1,2l-1,0l0,-1l1,0l0,1z"/>
  <path fill="#e1e2e7" id="svg_8" d="m11,12l-3,0l0,3l3,0l0,-3zm-1,2l-1,0l0,-1l1,0l0,1z"/>
  <path fill="#e1e2e7" id="svg_9" d="m20,10l-3,0l0,3l3,0l0,-3zm-1,2l-1,0l0,-1l1,0l0,1z"/>
  <path fill="#e1e2e7" id="svg_10" d="m20,14l-3,0l0,3l3,0l0,-3zm-1,2l-1,0l0,-1l1,0l0,1z"/>
 </g>
</svg>