<svg xmlns="http://www.w3.org/2000/svg" width="14" height="14" viewBox="0 0 14 14">
  <g id="Group_1273" data-name="Group 1273" transform="translate(-494.028 -249.028)">
    <circle id="Ellipse_8" data-name="Ellipse 8" cx="7" cy="7" r="7" transform="translate(494.028 249.028)" fill="#bcd1e4"/>
    <path id="Question_for_Job_Tit" data-name="Question for Job Tit" d="M2.681-7.143a1.987,1.987,0,0,1,.155-.811,2.125,2.125,0,0,1,.38-.592q.224-.242.592-.575a4.821,4.821,0,0,0,.679-.7,1.15,1.15,0,0,0,.219-.707,1.086,1.086,0,0,0-.437-.9,1.924,1.924,0,0,0-1.208-.339A2.461,2.461,0,0,0,1-10.858l-.84-.6A3.155,3.155,0,0,1,1.4-12.41a4.268,4.268,0,0,1,1.742-.334,3.267,3.267,0,0,1,1.99.546,1.767,1.767,0,0,1,.736,1.5,2.1,2.1,0,0,1-.155.834,2.158,2.158,0,0,1-.374.6q-.219.242-.587.575a4.667,4.667,0,0,0-.7.748,1.355,1.355,0,0,0-.224.794Zm.587,2.611a.725.725,0,0,1-.535-.213.711.711,0,0,1-.213-.523.711.711,0,0,1,.213-.523A.725.725,0,0,1,3.267-6a.706.706,0,0,1,.529.213A.722.722,0,0,1,4-5.268a.711.711,0,0,1-.213.523A.711.711,0,0,1,3.267-4.532Z" transform="translate(497.775 264.939)" fill="#fff"/>
  </g>
</svg>
