<svg xmlns="http://www.w3.org/2000/svg" width="29.281" height="23.791" viewBox="0 0 29.281 23.791">
  <path id="twitter" d="M29.281,50.816a12.516,12.516,0,0,1-3.459.948,5.969,5.969,0,0,0,2.641-3.318A12,12,0,0,1,24.657,49.9,6,6,0,0,0,14.273,54a6.181,6.181,0,0,0,.139,1.369A16.991,16.991,0,0,1,2.039,49.094a6,6,0,0,0,1.845,8.023,5.928,5.928,0,0,1-2.712-.739v.066a6.031,6.031,0,0,0,4.809,5.9,5.991,5.991,0,0,1-1.574.2,5.307,5.307,0,0,1-1.136-.1A6.06,6.06,0,0,0,8.88,66.619a12.062,12.062,0,0,1-7.443,2.56A11.243,11.243,0,0,1,0,69.1a16.9,16.9,0,0,0,9.209,2.694c11.046,0,17.086-9.15,17.086-17.082,0-.265-.009-.522-.022-.776A11.976,11.976,0,0,0,29.281,50.816Z" transform="translate(0 -48)" fill="#03a9f4"/>
</svg>
